<svg width="20" height="20" viewBox="0 0 20 20" fill="none" xmlns="http://www.w3.org/2000/svg">
<g clip-path="url(#clip0_1_9404)">
<path fill-rule="evenodd" clip-rule="evenodd" d="M20.0007 10.2278C20.0016 9.54168 19.9395 8.85687 19.8152 8.18164H10.2021V12.0498H15.6941C15.5801 12.661 15.3409 13.2432 14.991 13.7613C14.6411 14.2794 14.1876 14.7227 13.658 15.0644V17.574H16.9553C18.8847 15.8331 19.9979 13.2688 19.9979 10.2259L20.0007 10.2278Z" fill="#3E82F1"/>
<path fill-rule="evenodd" clip-rule="evenodd" d="M10.2039 19.9983C12.959 19.9983 15.2691 19.1033 16.9571 17.5762L13.6598 15.0666C12.7456 15.6667 11.5767 16.0218 10.2039 16.0218C7.54591 16.0218 5.29645 14.2621 4.49472 11.8984H1.08496V14.4901C1.93436 16.1465 3.23699 17.5388 4.84733 18.5115C6.45766 19.4842 8.31226 19.999 10.2039 19.9983Z" fill="#32A753"/>
<path fill-rule="evenodd" clip-rule="evenodd" d="M4.49502 11.8988C4.06819 10.6669 4.06819 9.33134 4.49502 8.09943V5.50781H1.08526C0.371616 6.90169 0 8.43962 0 9.9991C0 11.5586 0.371616 13.0965 1.08526 14.4904L4.49502 11.8988Z" fill="#F9BB00"/>
<path fill-rule="evenodd" clip-rule="evenodd" d="M10.204 3.97645C11.7026 3.97645 13.0475 4.48139 14.1049 5.47244L17.0312 2.60386C15.2643 0.990111 12.9543 6.91801e-07 10.2059 6.91801e-07C8.31421 -0.000688832 6.45961 0.514076 4.84928 1.48679C3.23895 2.4595 1.93631 3.85184 1.08691 5.50824L4.49667 8.09986C5.2984 5.73622 7.54786 3.97645 10.2059 3.97645H10.204Z" fill="#E74133"/>
</g>
<defs>
<clipPath id="clip0_1_9404">
<rect width="20" height="20" fill="white"/>
</clipPath>
</defs>
</svg>
