<svg width="230" height="200" viewBox="0 0 230 200" fill="none" xmlns="http://www.w3.org/2000/svg">
<path fill-rule="evenodd" clip-rule="evenodd" d="M118.187 68.0515C134.983 66.4479 148.12 52.2995 148.12 35.0829C148.12 16.7912 133.292 1.96289 115 1.96289C96.7082 1.96289 81.8799 16.7912 81.8799 35.0829C81.8799 52.2387 94.9237 66.3479 111.635 68.0341L114.49 73.5065C114.669 73.8505 115.161 73.8505 115.341 73.5066L118.187 68.0515Z" fill="#FDF0DF"/>
<path d="M110.2 19.7227H119.8L118.36 43.7227H111.64L110.2 19.7227Z" fill="#F97B22"/>
<rect x="111.64" y="45.6426" width="6.72" height="4.8" fill="#F97B22"/>
<path d="M4.6001 187.686H225.4" stroke="#6B6B6B" stroke-width="2" stroke-linecap="round"/>
<path d="M112.36 94.8857C142.256 94.8857 166.36 117.257 166.36 144.696C166.36 158.39 160.373 168.446 150.678 175.115C140.943 181.813 127.414 185.126 112.36 185.126C97.3054 185.126 83.7767 181.813 74.0415 175.115C64.3471 168.446 58.3599 158.39 58.3599 144.696C58.36 117.257 82.4635 94.8858 112.36 94.8857Z" fill="#FDF0DF" stroke="#ABABAB" stroke-width="1.92"/>
<ellipse cx="94.6001" cy="124.165" rx="5.04" ry="6.72" fill="#525252"/>
<ellipse cx="129.64" cy="124.165" rx="5.04" ry="6.72" fill="#525252"/>
<ellipse cx="112.12" cy="139.285" rx="3.84" ry="2.64" fill="#FEE8B0"/>
<ellipse cx="112.12" cy="152.482" rx="3.84" ry="4.8" fill="#525252"/>
<mask id="mask0_1_12067" style="mask-type:alpha" maskUnits="userSpaceOnUse" x="108" y="147" width="8" height="11">
<ellipse cx="112.12" cy="152.482" rx="3.84" ry="4.8" fill="#525252"/>
</mask>
<g mask="url(#mask0_1_12067)">
<ellipse cx="112.12" cy="157.968" rx="3.84" ry="4.8" fill="#FFBDE8"/>
</g>
<path d="M144.662 87.3213C146.232 86.435 148.254 86.0353 150.78 86.3545C155.973 87.0107 159.149 89.4161 162.397 92.2334C165.642 95.0467 169.005 98.329 174.42 100.245C177.686 101.401 181.433 101.855 185.234 102.074C187.14 102.184 189.078 102.235 190.988 102.283C192.904 102.331 194.791 102.376 196.62 102.47C200.292 102.659 203.639 103.047 206.376 104.022C209.078 104.986 211.124 106.5 212.321 108.926C214.29 113.671 213.856 121.671 208.544 127.68C203.27 133.645 192.992 137.839 174.914 134.509C156.382 131.095 145.297 118.178 141.471 106.494C139.551 100.633 139.497 95.2036 141.102 91.4736C141.897 89.6243 143.092 88.2076 144.662 87.3213Z" fill="#ABABAB" stroke="#ABABAB" stroke-width="1.92"/>
<path d="M76.2505 89.832C78.9515 89.3328 81.8081 89.6093 85.0063 91.126C87.1616 92.148 88.4975 93.4452 89.2446 94.9014C89.9942 96.3624 90.2002 98.0807 89.9204 100.028C89.3545 103.967 86.8301 108.637 83.2886 113.378C76.2387 122.815 65.5339 132.042 60.106 135.474C40.7094 145.852 29.0889 145.781 22.4185 141.958C15.7388 138.13 13.5778 130.28 13.7271 124.05L13.728 124.038V124.026C13.7281 119.571 15.0417 116.71 17.1265 114.742C19.2524 112.736 22.29 111.551 25.9438 110.701C29.6132 109.847 33.6931 109.37 37.938 108.654C42.1326 107.947 46.4157 107.015 50.2593 105.252C53.742 103.654 56.8794 101.549 59.8101 99.4219C62.7695 97.2739 65.4653 95.1462 68.189 93.3887C70.8962 91.6417 73.5233 90.3361 76.2505 89.832Z" fill="#ABABAB" stroke="#ABABAB" stroke-width="1.92"/>
<path d="M70.1758 166.812C75.1841 164.266 87.4678 162.233 102.043 166.379C107.177 168.729 112.449 173.285 111.745 180.504L111.741 180.543L111.74 180.582C111.703 182.966 110.869 186.63 108.26 189.775C105.676 192.89 101.278 195.586 93.9316 195.958L93.8662 195.961L93.8018 195.974C87.8069 197.107 81.4424 196.441 79.3027 195.979L79.2021 195.957H79.0996C73.5673 195.957 69.8882 194.194 67.3926 192.07C64.8761 189.929 63.5055 187.374 62.6816 185.694C60.3479 180.937 61.13 176.818 63.0264 173.575C64.9505 170.285 68.0269 167.905 70.1758 166.812Z" fill="#FDF0DF" stroke="#ABABAB" stroke-width="1.92"/>
<path d="M122.976 167.293C127.984 164.747 140.268 162.714 154.843 166.859C159.977 169.21 165.249 173.766 164.545 180.984L164.541 181.023L164.54 181.062C164.503 183.447 163.668 187.111 161.06 190.256C158.476 193.37 154.078 196.066 146.731 196.438L146.666 196.441L146.602 196.454C140.607 197.588 134.242 196.921 132.103 196.459L132.002 196.438H131.899C126.367 196.437 122.688 194.674 120.192 192.551C117.676 190.41 116.305 187.854 115.481 186.175C113.148 181.418 113.93 177.299 115.826 174.056C117.75 170.765 120.827 168.386 122.976 167.293Z" fill="#FDF0DF" stroke="#ABABAB" stroke-width="1.92"/>
<path d="M131.8 112.165C131.08 111.572 129.112 110.641 127 111.657" stroke="#525252" stroke-width="1.44" stroke-linecap="round"/>
<path d="M91.96 112.165C92.68 111.572 94.648 110.641 96.76 111.657" stroke="#525252" stroke-width="1.44" stroke-linecap="round"/>
</svg>
