<svg width="186" height="145" viewBox="0 0 186 145" fill="none" xmlns="http://www.w3.org/2000/svg">
<path d="M1 116.619H185" stroke="#6B6B6B" stroke-width="2" stroke-linecap="round"/>
<path d="M90.7998 36.8203C115.618 36.8203 135.599 55.3879 135.6 78.1289C135.6 89.4717 130.645 97.7917 122.619 103.313C114.55 108.864 103.32 111.62 90.7998 111.62C78.28 111.62 67.0502 108.864 58.9814 103.313C50.9552 97.7917 46 89.4719 46 78.1289C46.0002 55.388 65.9815 36.8204 90.7998 36.8203Z" fill="#FDF0DF" stroke="#C4C4C4" stroke-width="2"/>
<ellipse cx="76" cy="61.0199" rx="4.2" ry="5.6" fill="#525252"/>
<ellipse cx="105.2" cy="61.0199" rx="4.2" ry="5.6" fill="#525252"/>
<ellipse cx="90.6" cy="73.6199" rx="3.2" ry="2.2" fill="#FEE8B0"/>
<path d="M117.816 30.4902C119.08 29.7765 120.721 29.4463 122.792 29.708C127.058 30.2472 129.668 32.2198 132.367 34.5605C135.062 36.8971 137.895 39.6625 142.45 41.2744C145.199 42.2469 148.343 42.6264 151.517 42.8096C153.108 42.9015 154.726 42.9444 156.318 42.9844C157.916 43.0245 159.486 43.0614 161.007 43.1396C164.063 43.2969 166.828 43.6189 169.08 44.4219C171.291 45.2103 172.944 46.4386 173.914 48.3916C175.529 52.2769 175.179 58.8659 170.804 63.8154C166.471 68.7159 157.989 72.2093 142.965 69.4414C127.601 66.611 118.417 55.906 115.249 46.2314C113.658 41.3739 113.624 36.9034 114.936 33.8555C115.584 32.3479 116.552 31.204 117.816 30.4902Z" fill="#C4C4C4" stroke="#C4C4C4" stroke-width="2"/>
<path d="M60.7444 32.6064C62.9528 32.1983 65.2907 32.4225 67.9192 33.6689C69.6838 34.5057 70.761 35.5579 71.3596 36.7246C71.9608 37.8965 72.1315 39.2849 71.9026 40.8779C71.4384 44.1087 69.3594 47.9676 66.4133 51.9111C60.5558 59.7518 51.6592 67.4215 47.1545 70.2715C31.0114 78.9074 21.4127 78.806 15.9475 75.6738C10.4729 72.536 8.6823 66.0865 8.80591 60.9287V60.9053C8.80591 57.2358 9.88644 54.9082 11.5764 53.3135C13.309 51.6786 15.7981 50.7012 18.8323 49.9951C21.8824 49.2854 25.263 48.8908 28.8147 48.292C32.3141 47.702 35.9044 46.9218 39.1321 45.4414C42.0526 44.1018 44.6798 42.3374 47.1252 40.5625C49.6006 38.7659 51.8351 37.0018 54.0989 35.541C56.3454 34.0914 58.509 33.0197 60.7444 32.6064Z" fill="#C4C4C4" stroke="#C4C4C4" stroke-width="2"/>
<path d="M107.8 51.8203C107.32 51.4013 105.928 50.4946 104.2 50.2203" stroke="#525252" stroke-width="1.5" stroke-linecap="round"/>
<path d="M77 50.2207C76.52 50.6398 75.128 51.5464 73.4 51.8207" stroke="#525252" stroke-width="1.5" stroke-linecap="round"/>
<path d="M55.8093 79.5412C63.6475 77.8791 70.4732 80.8023 75.1171 87.399C77.5274 90.8229 80.2166 95.1367 81.9092 99.5292C83.6114 103.947 84.2363 108.265 82.7801 111.817L82.5078 112.482C80.9339 116.32 77.9147 119.169 74.5057 120.432C71.1149 121.688 67.3418 121.381 64.1326 118.923C55.5017 112.313 49.5531 104.053 45.6835 96.5337C42.0226 89.4196 46.9232 81.4259 55.1061 79.6905L55.8093 79.5412Z" fill="#FDF0DF" stroke="#C4C4C4" stroke-width="2"/>
<path d="M81.816 116.97C86.1897 123.698 95.5414 126.203 103.869 125.124L104.672 125.008C105.568 124.866 106.481 124.745 107.403 124.648C116.082 123.74 125.308 119.875 128.501 112.245C130.103 108.417 129.976 104.281 128.454 101.004C126.941 97.7465 124.053 95.3326 120.042 94.8484C108.048 93.4009 96.2849 95.5024 87.1091 98.4911C79.4851 100.974 77.2653 109.969 81.816 116.97Z" fill="#FDF0DF" stroke="#C4C4C4" stroke-width="2"/>
<path d="M32.2866 27.794C29.9795 22.1979 31.8632 16.2605 39.2148 23.794" stroke="#FCC49C" stroke-width="2"/>
<path d="M44.7573 20.5928C42.4502 14.9967 44.3339 9.05933 51.6855 16.5928" stroke="#FCC49C" stroke-width="2"/>
<path d="M32.3756 14.3467C30.0684 8.75061 31.9521 2.81323 39.3038 10.3467" stroke="#FCC49C" stroke-width="2"/>
<path d="M140.399 26.5928C142.706 20.9967 140.822 15.0593 133.471 22.5928" stroke="#FCC49C" stroke-width="2"/>
<path d="M127.928 19.3916C130.235 13.7955 128.352 7.85815 121 15.3916" stroke="#FCC49C" stroke-width="2"/>
<path d="M140.31 13.1455C142.617 7.54944 140.733 1.61206 133.382 9.14552" stroke="#FCC49C" stroke-width="2"/>
</svg>
