<svg width="181" height="101" viewBox="0 0 181 101" fill="none" xmlns="http://www.w3.org/2000/svg">
<path d="M1 91.0293H177.021" stroke="#6B6B6B" stroke-width="2" stroke-linecap="round"/>
<path d="M89.8523 8.71484C116.478 8.71484 137.924 28.6357 137.924 53.0459C137.924 65.2234 132.602 74.1588 123.984 80.0879C115.323 86.046 103.276 89.001 89.8523 89.001C76.429 89.0009 64.3812 86.0461 55.7205 80.0879C47.1022 74.1588 41.781 65.2234 41.781 53.0459C41.781 28.6358 63.2271 8.71494 89.8523 8.71484Z" fill="#FDF0DF" stroke="#C4C4C4" stroke-width="2"/>
<ellipse cx="73.9954" cy="39" rx="4.5" ry="6.00001" fill="#525252"/>
<ellipse cx="105.281" cy="39" rx="4.5" ry="6.00001" fill="#525252"/>
<ellipse cx="89.6383" cy="48.2146" rx="3.42857" ry="2.35715" fill="#FEE8B0"/>
<path d="M88.9769 59.8159C88.7076 61.4607 88.5671 61.2866 85.2353 60.8154C82.1386 60.2151 81.9352 60.2072 82.2044 58.5623C82.4737 56.9174 83.4712 53.6458 86.3322 54.1142C89.3052 54.601 89.2461 58.171 88.9769 59.8159Z" fill="#FFBDE8"/>
<path d="M80.2101 56.1426C80.0672 56.9997 79.7815 58.714 77.6387 60.4283" stroke="#525252" stroke-width="2" stroke-linecap="round"/>
<path d="M79.7808 58.7148C83.5637 61.2638 92.3907 63.9468 101.638 58.7148" stroke="#525252" stroke-width="2" stroke-linecap="round"/>
<path d="M118.764 1.94238C120.134 1.16888 121.907 0.813847 124.138 1.0957C128.731 1.67609 131.54 3.80112 134.435 6.31152C137.325 8.81778 140.35 11.7695 145.215 13.4912C148.15 14.5299 151.512 14.9366 154.91 15.1328C156.614 15.2312 158.346 15.2775 160.052 15.3203C161.763 15.3633 163.446 15.4024 165.077 15.4863C168.353 15.6549 171.324 16.0002 173.747 16.8643C176.133 17.715 177.924 19.0451 178.973 21.166C180.709 25.3543 180.328 32.4372 175.624 37.7578C170.96 43.0337 161.842 46.7769 145.73 43.8086C129.241 40.7707 119.381 29.2803 115.98 18.8926C114.272 13.6785 114.232 8.86921 115.646 5.58203C116.346 3.95472 117.394 2.71603 118.764 1.94238Z" fill="#C4C4C4" stroke="#C4C4C4" stroke-width="2"/>
<path d="M57.6377 4.2002C60.0189 3.76016 62.539 4.0031 65.3682 5.34473C67.2701 6.24663 68.437 7.38459 69.0869 8.65137C69.7394 9.92318 69.9225 11.4261 69.6758 13.1436C69.1758 16.6234 66.9397 20.7703 63.7812 24.998C57.4991 33.4072 47.958 41.6315 43.125 44.6885C25.8217 53.9455 15.5071 53.8525 9.61816 50.4775C3.71958 47.0969 1.797 40.1538 1.92969 34.6152L1.93066 34.6035V34.5908C1.93072 30.6438 3.09322 28.1299 4.9209 26.4053C6.79123 24.6404 9.47279 23.5904 12.7275 22.833C15.9984 22.0719 19.6273 21.6476 23.4277 21.0068C27.1758 20.3749 31.0154 19.5402 34.4648 17.958C37.5874 16.5257 40.3977 14.6391 43.0166 12.7383C45.6655 10.8157 48.0636 8.92197 50.4912 7.35547C52.9017 5.80007 55.2293 4.64536 57.6377 4.2002Z" fill="#C4C4C4" stroke="#C4C4C4" stroke-width="2"/>
<path d="M52.2522 72.9189C56.6838 70.6656 67.6103 68.8484 80.595 72.54C85.1555 74.6317 89.7805 78.6557 89.1614 85.002L89.1575 85.043L89.1565 85.083C89.1236 87.1856 88.3864 90.4243 86.0813 93.2031C83.803 95.9495 79.9159 98.3414 73.3918 98.6719L73.3235 98.6748L73.2561 98.6875C67.9258 99.6953 62.263 99.1029 60.3674 98.6934L60.2629 98.6699H60.1565C55.2503 98.6699 51.9976 97.1084 49.7952 95.2344C47.5711 93.3419 46.3585 91.0815 45.6252 89.5869C43.5658 85.3886 44.2552 81.7619 45.928 78.9014C47.6295 75.9917 50.3531 73.8846 52.2522 72.9189Z" fill="#FDF0DF" stroke="#C4C4C4" stroke-width="2"/>
<path d="M99.3953 73.3486C103.827 71.0953 114.753 69.2781 127.738 72.9697C132.299 75.0613 136.924 79.0854 136.304 85.4316L136.301 85.4727L136.3 85.5127C136.267 87.6153 135.529 90.854 133.224 93.6328C130.946 96.3792 127.059 98.7711 120.535 99.1016L120.467 99.1045L120.399 99.1172C115.069 100.125 109.406 99.5326 107.51 99.123L107.406 99.0996H107.3C102.393 99.0996 99.1406 97.5381 96.9382 95.6641C94.7142 93.7716 93.5015 91.5112 92.7683 90.0166C90.7089 85.8183 91.3982 82.1916 93.071 79.3311C94.7726 76.4214 97.4961 74.3143 99.3953 73.3486Z" fill="#FDF0DF" stroke="#C4C4C4" stroke-width="2"/>
</svg>
