<svg width="388" height="450" viewBox="0 0 388 450" fill="none" xmlns="http://www.w3.org/2000/svg">
<mask id="path-1-outside-1_1_10870" maskUnits="userSpaceOnUse" x="149.6" y="-0.599609" width="89" height="96" fill="black">
<rect fill="white" x="149.6" y="-0.599609" width="89" height="96"/>
<path fill-rule="evenodd" clip-rule="evenodd" d="M197.985 85.0111C218.98 83.006 235.4 65.3207 235.4 43.8004C235.4 20.9358 216.864 2.40039 194 2.40039C171.135 2.40039 152.6 20.9358 152.6 43.8004C152.6 65.2455 168.905 82.8823 189.795 84.9895L193.363 91.8299C193.587 92.2599 194.203 92.2599 194.427 91.83L197.985 85.0111Z"/>
</mask>
<path fill-rule="evenodd" clip-rule="evenodd" d="M197.985 85.0111C218.98 83.006 235.4 65.3207 235.4 43.8004C235.4 20.9358 216.864 2.40039 194 2.40039C171.135 2.40039 152.6 20.9358 152.6 43.8004C152.6 65.2455 168.905 82.8823 189.795 84.9895L193.363 91.8299C193.587 92.2599 194.203 92.2599 194.427 91.83L197.985 85.0111Z" fill="#FDF0DF"/>
<path d="M197.985 85.0111L197.756 82.6219L196.459 82.7458L195.857 83.9009L197.985 85.0111ZM189.795 84.9895L191.922 83.8794L191.324 82.7315L190.035 82.6016L189.795 84.9895ZM193.363 91.8299L191.235 92.94L191.235 92.94L193.363 91.8299ZM194.427 91.83L196.555 92.9401H196.555L194.427 91.83ZM233 43.8004C233 64.0718 217.532 80.7333 197.756 82.6219L198.213 87.4002C220.427 85.2786 237.8 66.5697 237.8 43.8004H233ZM194 4.80039C215.539 4.80039 233 22.2613 233 43.8004H237.8C237.8 19.6103 218.19 0.00039053 194 0.00039053V4.80039ZM155 43.8004C155 22.2613 172.461 4.80039 194 4.80039V0.00039053C169.81 0.00039053 150.2 19.6103 150.2 43.8004H155ZM190.035 82.6016C170.359 80.6168 155 64.0008 155 43.8004H150.2C150.2 66.4902 167.451 85.1477 189.554 87.3773L190.035 82.6016ZM195.491 90.7199L191.922 83.8794L187.667 86.0995L191.235 92.94L195.491 90.7199ZM192.299 90.7198C192.972 89.4299 194.818 89.43 195.491 90.7199L191.235 92.94C192.357 95.0898 195.433 95.0899 196.555 92.9401L192.299 90.7198ZM195.857 83.9009L192.299 90.7198L196.555 92.9401L200.112 86.1212L195.857 83.9009Z" fill="#FEE2CE" mask="url(#path-1-outside-1_1_10870)"/>
<path d="M169.4 32.4004L171.162 34.1617C172.247 35.2473 173.925 35.472 175.258 34.7102L175.707 34.4537C176.614 33.9357 177.741 34.0059 178.576 34.6323C179.222 35.1169 180.056 35.2761 180.835 35.0636L185.058 33.912C185.779 33.7154 186.55 33.8626 187.148 34.3109L187.335 34.4513C188.085 35.0137 189.116 35.0137 189.866 34.4513C190.552 33.9368 191.481 33.8888 192.216 34.33L193 34.8003C193.605 35.1632 194.369 35.1237 194.933 34.7006L195.412 34.3418C195.949 33.9392 196.714 34.0702 197.086 34.6286C197.387 35.0806 197.96 35.2654 198.469 35.0747L200.698 34.2387C201.784 33.8317 202.99 33.895 204.027 34.4134L204.39 34.5954C205.404 35.1022 206.597 35.1022 207.61 34.5954L208.388 34.2065C209.131 33.835 210.02 33.9152 210.685 34.4136C211.464 34.9984 212.536 34.9984 213.316 34.4136C213.981 33.9152 214.87 33.835 215.613 34.2065L218 35.4004" stroke="#FCC49C" stroke-width="1.8"/>
<path d="M169.4 42L171.162 43.7613C172.247 44.8469 173.925 45.0716 175.258 44.3099L175.707 44.0533C176.614 43.5353 177.741 43.6055 178.576 44.2319C179.222 44.7165 180.056 44.8757 180.835 44.6632L185.058 43.5116C185.779 43.315 186.55 43.4622 187.148 43.9105L187.335 44.0509C188.085 44.6133 189.116 44.6133 189.866 44.0509C190.552 43.5364 191.481 43.4884 192.216 43.9296L193 44.3999C193.605 44.7628 194.369 44.7233 194.933 44.3002L195.412 43.9414C195.949 43.5388 196.714 43.6698 197.086 44.2282C197.387 44.6802 197.96 44.8651 198.469 44.6743L202.4 43.2" stroke="#FCC49C" stroke-width="1.8"/>
<path d="M169.4 51.5996L171.162 53.3609C172.247 54.4465 173.925 54.6712 175.258 53.9095L175.707 53.6529C176.614 53.1349 177.741 53.2051 178.576 53.8315C179.222 54.3161 180.056 54.4753 180.835 54.2628L185.058 53.1112C185.779 52.9146 186.55 53.0618 187.148 53.5101L187.335 53.6505C188.085 54.2129 189.116 54.2129 189.866 53.6505C190.552 53.136 191.481 53.0881 192.216 53.5292L193 53.9995C193.605 54.3624 194.369 54.323 194.933 53.8998L195.412 53.541C195.949 53.1384 196.714 53.2694 197.086 53.8278C197.387 54.2798 197.96 54.4647 198.469 54.2739L200.698 53.438C201.784 53.0309 202.99 53.0942 204.027 53.6127L204.39 53.7946C205.404 54.3014 206.597 54.3014 207.61 53.7946C208.83 53.1848 210.289 53.3164 211.38 54.1346L212 54.5996" stroke="#FCC49C" stroke-width="1.8"/>
<path d="M195.2 111.952C231.204 111.952 260.301 139.878 260.301 174.216C260.301 191.351 253.068 203.921 241.385 212.25C229.653 220.613 213.348 224.752 195.2 224.752C177.052 224.752 160.748 220.613 149.016 212.25C137.332 203.921 130.101 191.35 130.101 174.216C130.101 139.878 159.197 111.952 195.2 111.952Z" fill="#FDF0DF" stroke="#C4C4C4" stroke-width="2.4"/>
<ellipse cx="171.8" cy="148.402" rx="6.3" ry="8.4" fill="#525252"/>
<ellipse cx="215.601" cy="148.402" rx="6.3" ry="8.4" fill="#525252"/>
<ellipse cx="190.7" cy="164.904" rx="4.8" ry="3.3" fill="#FEE8B0"/>
<ellipse cx="190.698" cy="182.602" rx="4.8" ry="6" fill="#525252"/>
<mask id="mask0_1_10870" style="mask-type:alpha" maskUnits="userSpaceOnUse" x="185" y="176" width="11" height="13">
<ellipse cx="190.698" cy="182.602" rx="4.8" ry="6" fill="#525252"/>
</mask>
<g mask="url(#mask0_1_10870)">
<ellipse cx="190.698" cy="189.459" rx="4.8" ry="6" fill="#FFBDE8"/>
</g>
<path d="M231.378 109.697C233.34 108.589 235.869 108.089 239.026 108.488C245.517 109.309 249.487 112.316 253.548 115.838C257.603 119.354 261.807 123.456 268.575 125.852C272.658 127.296 277.341 127.863 282.094 128.138C284.476 128.275 286.897 128.34 289.285 128.4C291.68 128.461 294.039 128.516 296.326 128.634C300.915 128.87 305.099 129.354 308.521 130.574C311.897 131.778 314.455 133.67 315.952 136.701C318.414 142.632 317.872 152.635 311.231 160.146C304.639 167.604 291.791 172.845 269.193 168.682C246.029 164.414 232.172 148.269 227.39 133.664C224.99 126.337 224.922 119.55 226.928 114.888C227.922 112.576 229.416 110.805 231.378 109.697Z" fill="#C4C4C4" stroke="#C4C4C4" stroke-width="2.4"/>
<path d="M159.494 101.98C162.203 101.481 165.07 101.756 168.292 103.279C170.456 104.302 171.778 105.59 172.513 107.019C173.251 108.453 173.46 110.15 173.18 112.097C172.611 116.044 170.065 120.757 166.458 125.57C159.287 135.142 148.393 144.503 142.878 147.981C123.118 158.521 111.359 158.404 104.658 154.575C97.9469 150.74 95.755 142.86 95.9062 136.563L95.9072 136.549V136.534C95.9073 132.053 97.2302 129.207 99.3037 127.256C101.429 125.257 104.48 124.063 108.195 123.201C111.93 122.335 116.07 121.853 120.415 121.122C124.697 120.402 129.089 119.451 133.036 117.646C136.608 116.012 139.823 113.86 142.815 111.694C145.844 109.503 148.58 107.35 151.352 105.566C154.102 103.797 156.753 102.486 159.494 101.98Z" fill="#C4C4C4" stroke="#C4C4C4" stroke-width="2.4"/>
<path d="M218.301 133.403C217.401 132.662 214.941 131.498 212.301 132.768" stroke="#525252" stroke-width="1.8" stroke-linecap="round"/>
<path d="M168.5 133.403C169.4 132.662 171.86 131.498 174.5 132.768" stroke="#525252" stroke-width="1.8" stroke-linecap="round"/>
<path d="M95.9941 168.419C106.82 162.91 117.972 164.519 127.347 172.346C132.176 176.377 137.769 181.601 141.948 187.337C146.146 193.099 148.781 199.193 148.035 205.018L147.898 206.086C147.098 212.339 143.787 217.715 139.267 220.919C134.766 224.109 129.072 225.15 123.364 222.792C108.243 216.546 96.3827 206.856 87.834 197.438C79.5995 188.367 83.7246 174.663 95.0332 168.908L95.9941 168.419Z" fill="#FDF0DF" stroke="#C4C4C4" stroke-width="2.4"/>
<path d="M72.7617 165.074L80.8755 162.9L88.9893 160.726L103.897 216.363C99.6394 220.584 93.4672 222.237 87.6697 220.712L72.7617 165.074Z" fill="#F97B22"/>
<path d="M85.9609 214.336C91.67 214.43 97.2914 212.924 102.188 209.988L103.049 213.198C98.2209 216.294 92.5501 217.814 86.821 217.546L85.9609 214.336Z" fill="#FEF3EB"/>
<path d="M88.9896 160.725L72.7621 165.074L77.1839 152.919C77.4687 152.136 78.445 151.875 79.0831 152.41L88.9896 160.725Z" fill="#FEE2CE"/>
<path d="M82.489 155.013L75.5343 156.876L77.0372 152.433C77.3116 151.622 78.3229 151.351 78.9661 151.917L82.489 155.013Z" fill="black"/>
<path d="M159.783 169.896C161.189 169.182 162.907 169.713 163.665 171.095L208.475 252.753C209.268 254.199 208.707 256.015 207.236 256.761L146.88 287.398C145.48 288.109 143.768 287.585 143.006 286.212L97.784 204.763C96.9806 203.316 97.5396 201.491 99.0152 200.742L159.783 169.896Z" fill="#ABABAB" stroke="#C4C4C4" stroke-width="2"/>
<path d="M98.6586 204.277C98.1304 203.326 98.4978 202.126 99.4682 201.633L157.287 172.284C158.21 171.816 159.338 172.163 159.838 173.069L204.811 254.644C205.335 255.595 204.967 256.792 203.999 257.283L146.427 286.507C145.507 286.974 144.381 286.629 143.88 285.726L98.6586 204.277Z" fill="#C4C4C4"/>
<path d="M98.6559 204.276C98.1289 203.325 98.4966 202.126 99.4664 201.634L154.339 173.781C155.26 173.313 156.387 173.659 156.887 174.563L202.023 256.055C202.55 257.006 202.183 258.205 201.213 258.697L146.341 286.551C145.419 287.018 144.293 286.673 143.792 285.769L98.6559 204.276Z" fill="#E0E0E0"/>
<path d="M136.226 174.292C138.377 173.2 141.005 173.859 142.385 175.837L145.498 180.297C147.181 182.708 146.342 186.052 143.72 187.383L124.757 197.008C122.597 198.105 119.958 197.435 118.582 195.44L115.498 190.967C113.834 188.555 114.678 185.23 117.29 183.903L136.226 174.292Z" fill="white" stroke="#C4C4C4" stroke-width="2"/>
<path d="M194.395 254.577C205.22 260.086 216.372 258.477 225.747 250.65C230.576 246.619 236.17 241.396 240.349 235.659C244.546 229.897 247.181 223.803 246.436 217.979L246.299 216.91C245.498 210.657 242.187 205.281 237.667 202.077C233.166 198.887 227.473 197.846 221.765 200.204C206.644 206.451 194.783 216.14 186.234 225.558C178 234.63 182.125 248.333 193.434 254.088L194.395 254.577Z" fill="#FDF0DF" stroke="#C4C4C4" stroke-width="2.4"/>
<path d="M111.398 337.133C114.586 337.133 116.883 340.039 116.906 344.609C116.883 349.215 114.586 352.109 111.398 352.109C108.176 352.109 105.879 349.215 105.891 344.609C105.879 340.039 108.176 337.133 111.398 337.133ZM108.398 344.609C108.387 347.867 109.617 349.754 111.398 349.766C113.191 349.754 114.387 347.867 114.398 344.609C114.387 341.375 113.191 339.477 111.398 339.477C109.617 339.477 108.387 341.375 108.398 344.609ZM119.695 356.773V335.586H122.297V343.719H125.555V345.922H122.297V356.773H119.695ZM134.484 339.266C134.484 341.879 136.289 344.492 139.664 345.547L138.328 347.562C135.926 346.789 134.18 345.195 133.207 343.18C132.258 345.371 130.453 347.117 127.945 347.961L126.609 345.945C130.02 344.797 131.836 342.043 131.859 339.266V339.008H127.289V336.922H138.938V339.008H134.484V339.266ZM129.633 351.453V349.344H144.094V356.773H141.469V351.453H129.633ZM141.469 348.359V335.586H144.094V348.359H141.469ZM170.531 335.586V356.773H167.93V335.586H170.531ZM152.977 350.891C154.664 350.879 156.574 350.879 158.578 350.82V348.875C156.199 348.5 154.641 347.047 154.641 345.031C154.641 342.641 156.762 341.059 159.844 341.047C162.961 341.059 165.117 342.641 165.117 345.031C165.117 347.035 163.559 348.477 161.18 348.863V350.727C163.043 350.645 164.918 350.492 166.688 350.258L166.875 352.203C162.223 352.988 157.16 353.047 153.352 353.047L152.977 350.891ZM153.422 340.086V338.023H158.578V335.656H161.18V338.023H166.312V340.086H153.422ZM157.125 345.031C157.102 346.25 158.238 346.965 159.844 346.953C161.496 346.965 162.621 346.25 162.609 345.031C162.621 343.801 161.496 343.051 159.844 343.039C158.238 343.051 157.102 343.801 157.125 345.031ZM191.391 335.609V351.641H188.766V349.789H184.617V347.961H188.766V335.609H191.391ZM173.531 345.125C177.434 345.102 182.695 345.066 187.195 344.492L187.336 346.367C185.59 346.66 183.785 346.848 181.992 346.977V351.055H179.391V347.117C177.41 347.199 175.523 347.211 173.859 347.211L173.531 345.125ZM175.148 340.133C175.148 337.895 177.305 336.371 180.445 336.383C183.527 336.371 185.695 337.895 185.719 340.133C185.695 342.406 183.527 343.848 180.445 343.859C177.305 343.848 175.148 342.406 175.148 340.133ZM176.344 356.352V350.094H178.945V354.242H191.883V356.352H176.344ZM177.609 340.133C177.609 341.281 178.746 341.949 180.445 341.961C182.062 341.949 183.223 341.281 183.234 340.133C183.223 338.984 182.062 338.293 180.445 338.305C178.746 338.293 177.609 338.984 177.609 340.133ZM211.992 335.586V356.797H209.367V335.586H211.992ZM195.047 344.609C195.035 340.039 197.367 337.133 200.578 337.133C203.754 337.133 206.098 340.039 206.109 344.609C206.098 349.215 203.754 352.109 200.578 352.109C197.367 352.109 195.035 349.215 195.047 344.609ZM197.555 344.609C197.555 347.867 198.785 349.754 200.578 349.766C202.359 349.754 203.578 347.867 203.578 344.609C203.578 341.375 202.359 339.477 200.578 339.477C198.785 339.477 197.555 341.375 197.555 344.609ZM225.609 347.984V350.258H228.398V347.984H230.812V354.711C233.309 353.656 234.445 351.535 234.445 349.508V347.82H237.047V349.508C237.035 351.699 238.184 353.844 240.797 354.734L239.461 356.68C237.586 356 236.391 354.723 235.723 353.117C235.02 354.676 233.812 355.977 232.055 356.68L230.812 354.84V356.516H223.172V347.984H225.609ZM221.086 341.375C221.086 338.48 223.441 336.441 226.688 336.453C229.418 336.441 231.574 337.977 232.113 340.273H235.945V335.586H238.547V346.812H235.945V342.43H232.125C231.609 344.785 229.441 346.344 226.688 346.344C223.441 346.344 221.086 344.316 221.086 341.375ZM223.57 341.375C223.57 343.086 224.859 344.211 226.688 344.211C228.469 344.211 229.746 343.086 229.758 341.375C229.746 339.699 228.469 338.598 226.688 338.609C224.859 338.598 223.57 339.699 223.57 341.375ZM225.609 354.523H228.398V352.203H225.609V354.523ZM247.336 337.133C250.195 337.133 252.316 339.523 252.691 343.391H256.734V335.586H259.312V356.797H256.734V345.5H252.715C252.434 349.59 250.277 352.109 247.336 352.109C244.148 352.109 241.887 349.215 241.898 344.609C241.887 340.039 244.148 337.133 247.336 337.133ZM244.406 344.609C244.395 347.867 245.59 349.754 247.336 349.766C249.094 349.754 250.277 347.867 250.289 344.609C250.277 341.375 249.094 339.477 247.336 339.477C245.59 339.477 244.395 341.375 244.406 344.609ZM281.648 352.062V354.195H262.289V352.062H266.766V346.707C265.078 345.734 264.059 344.211 264.07 342.336C264.059 338.961 267.363 336.734 271.922 336.734C276.504 336.734 279.832 338.961 279.82 342.336C279.832 344.188 278.836 345.676 277.195 346.648V352.062H281.648ZM266.625 342.336C266.613 344.504 268.758 345.887 271.922 345.875C275.074 345.887 277.266 344.504 277.266 342.336C277.266 340.133 275.074 338.785 271.922 338.797C268.758 338.785 266.613 340.133 266.625 342.336ZM269.344 352.062H274.547V347.645C273.738 347.82 272.859 347.914 271.922 347.914C271.008 347.914 270.141 347.82 269.344 347.656V352.062Z" fill="#999999"/>
<path d="M97.3594 397.379H99.8984V398.961H97.3594V403.395H95.5039V392.848H97.3594V397.379ZM97.3594 410.133H86.1875V404.312H97.3594V410.133ZM88.0039 408.629H95.5234V405.777H88.0039V408.629ZM94.0586 396.109H83.6289V394.625H87.9258V392.711H89.7812V394.625H94.0586V396.109ZM88.8438 396.871C89.6771 396.871 90.4128 397.001 91.0508 397.262C91.6953 397.522 92.1934 397.89 92.5449 398.365C92.903 398.834 93.082 399.378 93.082 399.996C93.082 400.621 92.903 401.171 92.5449 401.646C92.1934 402.115 91.6953 402.48 91.0508 402.74C90.4128 403.001 89.6771 403.134 88.8438 403.141C87.9974 403.134 87.252 403.001 86.6074 402.74C85.9629 402.48 85.4648 402.115 85.1133 401.646C84.7617 401.171 84.5859 400.621 84.5859 399.996C84.5859 399.378 84.7617 398.834 85.1133 398.365C85.4714 397.89 85.9694 397.522 86.6074 397.262C87.252 397.001 87.9974 396.871 88.8438 396.871ZM88.8438 398.297C88.349 398.29 87.916 398.355 87.5449 398.492C87.1738 398.629 86.8841 398.827 86.6758 399.088C86.474 399.348 86.3763 399.651 86.3828 399.996C86.3763 400.536 86.5944 400.963 87.0371 401.275C87.4863 401.581 88.0885 401.734 88.8438 401.734C89.5924 401.734 90.1947 401.581 90.6504 401.275C91.1061 400.963 91.3372 400.536 91.3438 399.996C91.3372 399.651 91.2298 399.348 91.0215 399.088C90.8132 398.827 90.5202 398.629 90.1426 398.492C89.765 398.355 89.332 398.29 88.8438 398.297ZM105.23 394.918C105.224 396.389 105.139 397.766 104.977 399.049C104.814 400.325 104.518 401.585 104.088 402.828C103.658 404.072 103.056 405.237 102.281 406.324L100.836 405.504C101.793 404.221 102.477 402.844 102.887 401.373C103.303 399.895 103.548 398.251 103.619 396.441H101.246V394.918H105.23ZM109.117 394.918C109.117 395.803 109.101 396.627 109.068 397.389C109.042 398.144 108.984 398.889 108.893 399.625H110.953V393.297H112.711V409.488H110.953V401.129H108.678C108.235 403.583 107.411 405.667 106.207 407.379L104.762 406.539C105.471 405.589 106.025 404.56 106.422 403.453C106.819 402.34 107.092 401.22 107.242 400.094C107.392 398.967 107.483 397.75 107.516 396.441H105.758V394.918H109.117ZM116.031 410.348H114.254V392.848H116.031V410.348ZM137.555 410.387H135.699V392.848H137.555V410.387ZM128.199 394.156C129.065 394.156 129.84 394.41 130.523 394.918C131.207 395.419 131.741 396.135 132.125 397.066C132.516 397.991 132.711 399.065 132.711 400.289C132.711 401.52 132.516 402.6 132.125 403.531C131.741 404.462 131.207 405.182 130.523 405.689C129.84 406.191 129.065 406.441 128.199 406.441C127.32 406.441 126.539 406.191 125.855 405.689C125.172 405.182 124.635 404.465 124.244 403.541C123.86 402.61 123.668 401.526 123.668 400.289C123.668 399.059 123.86 397.981 124.244 397.057C124.635 396.126 125.172 395.41 125.855 394.908C126.539 394.407 127.32 394.156 128.199 394.156ZM128.199 395.816C127.659 395.816 127.18 395.999 126.764 396.363C126.354 396.728 126.035 397.249 125.807 397.926C125.579 398.596 125.465 399.384 125.465 400.289C125.465 401.201 125.579 401.995 125.807 402.672C126.035 403.349 126.354 403.87 126.764 404.234C127.18 404.599 127.659 404.781 128.199 404.781C128.733 404.781 129.205 404.599 129.615 404.234C130.025 403.87 130.344 403.349 130.572 402.672C130.8 401.995 130.914 401.201 130.914 400.289C130.914 399.384 130.8 398.596 130.572 397.926C130.344 397.249 130.025 396.728 129.615 396.363C129.205 395.999 128.733 395.816 128.199 395.816ZM156.305 402.887H140.348V401.383H144.176V399.029C143.492 398.749 142.968 398.391 142.604 397.955C142.245 397.512 142.066 397.008 142.066 396.441C142.066 395.758 142.317 395.172 142.818 394.684C143.326 394.189 144.049 393.811 144.986 393.551C145.93 393.29 147.04 393.16 148.316 393.16C149.592 393.16 150.699 393.29 151.637 393.551C152.574 393.811 153.297 394.189 153.805 394.684C154.312 395.172 154.566 395.758 154.566 396.441C154.566 397.014 154.381 397.522 154.01 397.965C153.645 398.401 153.121 398.756 152.438 399.029V401.383H156.305V402.887ZM148.316 404.078C149.573 404.078 150.65 404.199 151.549 404.439C152.454 404.68 153.147 405.035 153.629 405.504C154.111 405.966 154.352 406.526 154.352 407.184C154.352 407.854 154.111 408.421 153.629 408.883C153.154 409.352 152.464 409.706 151.559 409.947C150.654 410.188 149.573 410.309 148.316 410.309C147.047 410.309 145.956 410.188 145.045 409.947C144.14 409.706 143.447 409.352 142.965 408.883C142.483 408.421 142.242 407.854 142.242 407.184C142.242 406.526 142.483 405.966 142.965 405.504C143.447 405.035 144.14 404.68 145.045 404.439C145.956 404.199 147.047 404.078 148.316 404.078ZM148.316 405.504C146.975 405.504 145.94 405.65 145.211 405.943C144.482 406.236 144.117 406.65 144.117 407.184C144.117 407.73 144.482 408.154 145.211 408.453C145.947 408.746 146.982 408.889 148.316 408.883C149.638 408.896 150.663 408.753 151.393 408.453C152.128 408.154 152.496 407.73 152.496 407.184C152.496 406.65 152.128 406.236 151.393 405.943C150.663 405.65 149.638 405.504 148.316 405.504ZM148.316 394.586C147.418 394.586 146.64 394.661 145.982 394.811C145.331 394.954 144.833 395.165 144.488 395.445C144.143 395.725 143.974 396.057 143.98 396.441C143.974 396.826 144.143 397.158 144.488 397.438C144.833 397.711 145.331 397.919 145.982 398.062C146.633 398.206 147.411 398.277 148.316 398.277C149.677 398.277 150.738 398.118 151.5 397.799C152.268 397.48 152.652 397.027 152.652 396.441C152.652 396.051 152.48 395.719 152.135 395.445C151.79 395.165 151.292 394.954 150.641 394.811C149.99 394.661 149.215 394.586 148.316 394.586ZM150.602 401.383V399.518C149.898 399.628 149.137 399.684 148.316 399.684C147.535 399.684 146.78 399.632 146.051 399.527V401.383H150.602ZM171.383 396.891H173.941V398.414H171.383V402.418H169.527V392.789H171.383V396.891ZM171.383 407.301H161.93V408.766H171.988V410.172H160.113V405.992H169.547V404.625H160.074V403.238H171.383V407.301ZM168.082 395.797H157.652V394.332H161.949V392.691H163.805V394.332H168.082V395.797ZM162.867 396.461C163.714 396.461 164.456 396.578 165.094 396.812C165.738 397.04 166.233 397.372 166.578 397.809C166.93 398.238 167.105 398.746 167.105 399.332C167.105 399.918 166.93 400.426 166.578 400.855C166.233 401.285 165.742 401.614 165.104 401.842C164.465 402.07 163.72 402.184 162.867 402.184C162.008 402.184 161.256 402.07 160.611 401.842C159.973 401.614 159.479 401.285 159.127 400.855C158.782 400.426 158.609 399.918 158.609 399.332C158.609 398.746 158.785 398.238 159.137 397.809C159.488 397.372 159.983 397.04 160.621 396.812C161.266 396.578 162.014 396.461 162.867 396.461ZM162.867 397.789C162.372 397.789 161.936 397.854 161.559 397.984C161.188 398.108 160.901 398.287 160.699 398.521C160.497 398.749 160.4 399.02 160.406 399.332C160.4 399.794 160.618 400.162 161.061 400.436C161.51 400.702 162.112 400.836 162.867 400.836C163.622 400.836 164.225 400.702 164.674 400.436C165.13 400.169 165.361 399.801 165.367 399.332C165.361 399.02 165.253 398.749 165.045 398.521C164.837 398.287 164.544 398.108 164.166 397.984C163.795 397.854 163.362 397.789 162.867 397.789ZM194.273 410.348H192.418V392.848H194.273V410.348ZM179.898 405.582C182.001 405.569 183.603 405.546 184.703 405.514V403.766C184.02 403.681 183.424 403.495 182.916 403.209C182.408 402.923 182.018 402.555 181.744 402.105C181.471 401.656 181.337 401.148 181.344 400.582C181.337 399.931 181.51 399.358 181.861 398.863C182.213 398.368 182.711 397.984 183.355 397.711C184 397.438 184.742 397.301 185.582 397.301C186.428 397.301 187.177 397.438 187.828 397.711C188.486 397.984 188.993 398.368 189.352 398.863C189.716 399.358 189.898 399.931 189.898 400.582C189.898 401.142 189.758 401.646 189.479 402.096C189.205 402.538 188.814 402.903 188.307 403.189C187.805 403.476 187.216 403.665 186.539 403.756V405.445C188.258 405.374 189.859 405.243 191.344 405.055L191.48 406.441C189.755 406.728 187.978 406.913 186.148 406.998C184.319 407.083 182.32 407.125 180.152 407.125L179.898 405.582ZM190.953 396.422H180.27V394.938H184.703V392.887H186.559V394.938H190.953V396.422ZM185.582 398.746C185.094 398.746 184.661 398.824 184.283 398.98C183.906 399.13 183.613 399.345 183.404 399.625C183.196 399.898 183.095 400.217 183.102 400.582C183.095 400.947 183.196 401.266 183.404 401.539C183.613 401.806 183.906 402.014 184.283 402.164C184.661 402.307 185.094 402.379 185.582 402.379C186.083 402.379 186.526 402.307 186.91 402.164C187.294 402.014 187.59 401.806 187.799 401.539C188.014 401.266 188.121 400.947 188.121 400.582C188.121 400.217 188.014 399.898 187.799 399.625C187.584 399.345 187.285 399.13 186.9 398.98C186.516 398.824 186.077 398.746 185.582 398.746ZM211.637 406.129H209.781V404.449H206.266V403.141H209.781V392.867H211.637V406.129ZM212.066 409.977H199.43V404.84H201.266V408.473H212.066V409.977ZM197.008 400.855C199.286 400.842 201.331 400.803 203.141 400.738C204.957 400.673 206.689 400.536 208.336 400.328L208.453 401.656C207.014 401.891 205.478 402.06 203.844 402.164V405.582H201.988V402.271C200.732 402.317 199.449 402.34 198.141 402.34H197.242L197.008 400.855ZM202.73 393.531C203.577 393.531 204.329 393.661 204.986 393.922C205.644 394.176 206.155 394.537 206.52 395.006C206.884 395.468 207.066 396.005 207.066 396.617C207.066 397.229 206.884 397.766 206.52 398.229C206.155 398.684 205.644 399.039 204.986 399.293C204.329 399.54 203.577 399.664 202.73 399.664C201.871 399.664 201.113 399.54 200.455 399.293C199.798 399.039 199.286 398.684 198.922 398.229C198.557 397.766 198.375 397.229 198.375 396.617C198.375 396.005 198.557 395.468 198.922 395.006C199.286 394.537 199.798 394.176 200.455 393.922C201.113 393.661 201.871 393.531 202.73 393.531ZM202.73 394.918C202.216 394.911 201.76 394.977 201.363 395.113C200.966 395.25 200.66 395.449 200.445 395.709C200.23 395.969 200.126 396.272 200.133 396.617C200.126 396.956 200.23 397.252 200.445 397.506C200.66 397.76 200.963 397.955 201.354 398.092C201.751 398.229 202.21 398.297 202.73 398.297C203.232 398.297 203.674 398.229 204.059 398.092C204.449 397.955 204.752 397.76 204.967 397.506C205.188 397.252 205.302 396.956 205.309 396.617C205.302 396.272 205.188 395.969 204.967 395.709C204.752 395.449 204.449 395.25 204.059 395.113C203.674 394.977 203.232 394.911 202.73 394.918ZM222.34 393.141C223.655 393.141 224.778 393.258 225.709 393.492C226.646 393.72 227.359 394.059 227.848 394.508C228.342 394.957 228.59 395.504 228.59 396.148C228.59 396.793 228.342 397.343 227.848 397.799C227.359 398.248 226.646 398.59 225.709 398.824C224.778 399.059 223.655 399.176 222.34 399.176C221.025 399.176 219.898 399.059 218.961 398.824C218.03 398.59 217.317 398.248 216.822 397.799C216.334 397.343 216.09 396.793 216.09 396.148C216.09 395.504 216.334 394.957 216.822 394.508C217.317 394.059 218.03 393.72 218.961 393.492C219.898 393.258 221.025 393.141 222.34 393.141ZM222.34 394.508C220.947 394.508 219.876 394.651 219.127 394.938C218.378 395.224 218.01 395.628 218.023 396.148C218.017 396.682 218.382 397.089 219.117 397.369C219.859 397.649 220.934 397.789 222.34 397.789C223.74 397.789 224.811 397.649 225.553 397.369C226.301 397.089 226.676 396.682 226.676 396.148C226.676 395.628 226.298 395.224 225.543 394.938C224.794 394.651 223.727 394.508 222.34 394.508ZM230.328 401.734H214.371V400.25H230.328V401.734ZM228.316 407.184H218.121V408.746H228.805V410.172H216.305V405.836H226.48V404.469H216.285V403.082H228.316V407.184ZM252.555 408.199H236.539V406.676H243.609V402.867H245.445V406.676H252.555V408.199ZM251.07 397.008H245.465C245.491 397.815 245.774 398.57 246.314 399.273C246.855 399.97 247.597 400.559 248.541 401.041C249.485 401.523 250.549 401.852 251.734 402.027L251.031 403.473C249.553 403.238 248.238 402.786 247.086 402.115C245.94 401.438 245.084 400.595 244.518 399.586C243.958 400.595 243.105 401.438 241.959 402.115C240.82 402.786 239.508 403.238 238.023 403.473L237.32 402.027C238.505 401.852 239.566 401.523 240.504 401.041C241.448 400.559 242.19 399.97 242.73 399.273C243.271 398.57 243.557 397.815 243.59 397.008H237.984V395.504H243.609V393.16H245.445V395.504H251.07V397.008ZM268.844 410.348H267.066V401.305H264.801V409.449H263.102V393.199H264.801V399.781H267.066V392.848H268.844V410.348ZM260.973 396.461H256.266V404.566C257.411 404.553 258.414 404.514 259.273 404.449C260.139 404.384 261.018 404.267 261.91 404.098L262.047 405.621C261.064 405.823 260.094 405.96 259.137 406.031C258.18 406.096 256.995 406.135 255.582 406.148H254.41V394.957H260.973V396.461ZM284.742 399.938H287.555V401.48H284.742V410.348H282.906V392.848H284.742V399.938ZM281.383 397.105H271.012V395.582H275.328V393.082H277.184V395.582H281.383V397.105ZM276.266 398.395C277.092 398.395 277.835 398.567 278.492 398.912C279.15 399.257 279.667 399.739 280.045 400.357C280.423 400.976 280.615 401.676 280.621 402.457C280.615 403.245 280.423 403.948 280.045 404.566C279.667 405.185 279.15 405.667 278.492 406.012C277.835 406.357 277.092 406.533 276.266 406.539C275.432 406.533 274.684 406.357 274.02 406.012C273.362 405.667 272.844 405.185 272.467 404.566C272.096 403.948 271.91 403.245 271.91 402.457C271.91 401.676 272.096 400.976 272.467 400.357C272.844 399.739 273.362 399.257 274.02 398.912C274.684 398.567 275.432 398.395 276.266 398.395ZM276.266 399.918C275.777 399.918 275.335 400.025 274.938 400.24C274.54 400.455 274.231 400.755 274.01 401.139C273.788 401.523 273.681 401.962 273.688 402.457C273.681 402.958 273.788 403.401 274.01 403.785C274.231 404.169 274.537 404.465 274.928 404.674C275.325 404.882 275.771 404.983 276.266 404.977C276.754 404.983 277.193 404.882 277.584 404.674C277.981 404.465 278.29 404.169 278.512 403.785C278.733 403.401 278.844 402.958 278.844 402.457C278.844 401.962 278.733 401.523 278.512 401.139C278.29 400.755 277.981 400.455 277.584 400.24C277.193 400.025 276.754 399.918 276.266 399.918ZM302.555 396.246C302.555 397.229 302.542 398.085 302.516 398.814C302.496 399.537 302.438 400.374 302.34 401.324C302.249 402.275 302.099 403.303 301.891 404.41L300.016 404.215C300.224 403.167 300.377 402.18 300.475 401.256C300.579 400.325 300.641 399.498 300.66 398.775C300.686 398.053 300.699 397.21 300.699 396.246V396.031H290.074V394.527H302.555V396.246ZM304.352 407.984H288.395V406.441H294.469V400.27H296.305V406.441H304.352V407.984ZM97.3594 430.023H99.8984V431.566H97.3594V437.562H95.4844V424.848H97.3594V430.023ZM92.6133 426.176C92.6133 427.686 92.2845 429.063 91.627 430.307C90.9694 431.55 90.0221 432.624 88.7852 433.529C87.5547 434.428 86.0833 435.134 84.3711 435.648L83.5898 434.164C84.9505 433.754 86.1322 433.23 87.1348 432.592C88.1439 431.954 88.9414 431.221 89.5273 430.395C90.1198 429.568 90.4746 428.676 90.5918 427.719H84.332V426.176H92.6133ZM98.082 441.977H86.2461V436.254H88.1211V440.473H98.082V441.977ZM107.262 427.367C107.255 428.174 107.424 428.946 107.77 429.682C108.121 430.411 108.626 431.055 109.283 431.615C109.941 432.175 110.712 432.602 111.598 432.895L110.66 434.359C109.658 434.008 108.782 433.49 108.033 432.807C107.291 432.117 106.721 431.312 106.324 430.395C105.927 431.391 105.351 432.26 104.596 433.002C103.847 433.738 102.958 434.288 101.93 434.652L100.992 433.207C101.884 432.888 102.659 432.429 103.316 431.83C103.98 431.231 104.488 430.548 104.84 429.779C105.191 429.005 105.367 428.201 105.367 427.367V425.688H107.262V427.367ZM115.406 442.348H113.551V437.699H103.551V436.195H115.406V442.348ZM115.406 435.355H113.551V424.848H115.406V435.355ZM136.988 427.484C136.988 428.611 136.959 429.61 136.9 430.482C136.848 431.348 136.715 432.335 136.5 433.441H139.02V434.965H131.93V442.367H130.055V434.965H123.062V433.441H134.625C134.859 432.341 135.006 431.355 135.064 430.482C135.123 429.604 135.152 428.604 135.152 427.484V427.465H125.016V425.941H136.988V427.484ZM155.406 442.348H153.629V433.227H151.461V441.488H149.703V425.18H151.461V431.703H153.629V424.848H155.406V442.348ZM147.73 437.738H140.934V426.82H147.73V437.738ZM142.691 436.254H145.992V428.285H142.691V436.254ZM173.629 434.301H157.613V432.875H173.629V434.301ZM171.656 439.379H161.383V440.824H172.203V442.133H159.527V438.148H169.82V436.859H159.508V435.531H171.656V439.379ZM171.617 429.086H161.5V430.414H171.91V431.723H159.664V427.855H169.762V426.605H159.625V425.297H171.617V429.086ZM195.758 435.512H179.762V434.047H186.832V432.523H181.852V425.316H193.805V426.781H183.727V428.207H193.355V429.594H183.727V431.078H193.922V432.523H188.688V434.047H195.758V435.512ZM187.77 436.664C189.046 436.658 190.133 436.765 191.031 436.986C191.936 437.201 192.623 437.52 193.092 437.943C193.567 438.367 193.805 438.884 193.805 439.496C193.805 440.421 193.281 441.124 192.232 441.605C191.191 442.087 189.703 442.322 187.77 442.309C185.816 442.322 184.316 442.087 183.268 441.605C182.219 441.124 181.695 440.421 181.695 439.496C181.695 438.884 181.93 438.367 182.398 437.943C182.874 437.52 183.564 437.201 184.469 436.986C185.38 436.765 186.48 436.658 187.77 436.664ZM187.77 438.051C186.389 438.051 185.338 438.174 184.615 438.422C183.899 438.669 183.544 439.027 183.551 439.496C183.544 439.965 183.899 440.32 184.615 440.561C185.338 440.801 186.389 440.915 187.77 440.902C189.13 440.915 190.165 440.801 190.875 440.561C191.591 440.32 191.949 439.965 191.949 439.496C191.949 439.027 191.591 438.669 190.875 438.422C190.159 438.174 189.124 438.051 187.77 438.051ZM210.836 429.242H213.375V430.805H210.836V435.043H208.98V424.848H210.836V429.242ZM201.48 437.465H208.98V435.766H210.836V442.133H199.645V435.766H201.48V437.465ZM208.98 440.648V438.91H201.48V440.648H208.98ZM207.535 428.051H197.105V426.566H201.402V424.691H203.258V426.566H207.535V428.051ZM202.32 428.773C203.154 428.773 203.889 428.9 204.527 429.154C205.172 429.402 205.67 429.757 206.021 430.219C206.38 430.681 206.559 431.221 206.559 431.84C206.559 432.452 206.38 432.992 206.021 433.461C205.67 433.923 205.172 434.281 204.527 434.535C203.889 434.789 203.154 434.913 202.32 434.906C201.474 434.913 200.729 434.789 200.084 434.535C199.446 434.281 198.948 433.923 198.59 433.461C198.238 432.992 198.062 432.452 198.062 431.84C198.062 431.221 198.238 430.681 198.59 430.219C198.941 429.757 199.439 429.402 200.084 429.154C200.729 428.9 201.474 428.773 202.32 428.773ZM202.32 430.16C201.832 430.154 201.399 430.222 201.021 430.365C200.65 430.502 200.361 430.701 200.152 430.961C199.951 431.215 199.853 431.508 199.859 431.84C199.853 432.178 199.951 432.478 200.152 432.738C200.361 432.992 200.65 433.191 201.021 433.334C201.393 433.471 201.826 433.539 202.32 433.539C202.809 433.539 203.242 433.471 203.619 433.334C203.997 433.191 204.29 432.992 204.498 432.738C204.706 432.478 204.814 432.178 204.82 431.84C204.814 431.501 204.706 431.205 204.498 430.951C204.29 430.697 203.997 430.502 203.619 430.365C203.242 430.222 202.809 430.154 202.32 430.16ZM229 427.152V427.387C228.987 428.266 228.954 429.076 228.902 429.818C228.85 430.561 228.733 431.397 228.551 432.328L226.715 432.152C226.884 431.28 226.998 430.499 227.057 429.809C227.122 429.112 227.161 428.409 227.174 427.699H220.172V426.176H229V427.152ZM224.527 433.725C226.656 433.646 228.512 433.493 230.094 433.266L230.211 434.613C228.596 434.9 226.904 435.089 225.133 435.18C223.362 435.271 221.415 435.323 219.293 435.336L219.117 433.832H219.332C219.768 433.826 220.322 433.819 220.992 433.812C221.663 433.806 222.229 433.796 222.691 433.783V430.102H224.527V433.725ZM233.102 430.414H235.504V431.977H233.102V437.992H231.207V424.848H233.102V430.414ZM233.668 441.977H221.773V436.801H223.629V440.473H233.668V441.977ZM251.07 442.387H249.215V424.848H251.07V442.387ZM245.719 432.816H239.43V436.645C240.966 436.638 242.376 436.589 243.658 436.498C244.947 436.407 246.285 436.247 247.672 436.02L247.848 437.543C246.389 437.79 244.973 437.96 243.6 438.051C242.232 438.142 240.706 438.188 239.02 438.188H237.535V431.332H243.824V427.934H237.516V426.43H245.719V432.816ZM267.457 431.938H270.27V433.48H267.457V442.348H265.621V424.848H267.457V431.938ZM264.098 429.105H253.727V427.582H258.043V425.082H259.898V427.582H264.098V429.105ZM258.98 430.395C259.807 430.395 260.549 430.567 261.207 430.912C261.865 431.257 262.382 431.739 262.76 432.357C263.137 432.976 263.329 433.676 263.336 434.457C263.329 435.245 263.137 435.948 262.76 436.566C262.382 437.185 261.865 437.667 261.207 438.012C260.549 438.357 259.807 438.533 258.98 438.539C258.147 438.533 257.398 438.357 256.734 438.012C256.077 437.667 255.559 437.185 255.182 436.566C254.811 435.948 254.625 435.245 254.625 434.457C254.625 433.676 254.811 432.976 255.182 432.357C255.559 431.739 256.077 431.257 256.734 430.912C257.398 430.567 258.147 430.395 258.98 430.395ZM258.98 431.918C258.492 431.918 258.049 432.025 257.652 432.24C257.255 432.455 256.946 432.755 256.725 433.139C256.503 433.523 256.396 433.962 256.402 434.457C256.396 434.958 256.503 435.401 256.725 435.785C256.946 436.169 257.252 436.465 257.643 436.674C258.04 436.882 258.486 436.983 258.98 436.977C259.469 436.983 259.908 436.882 260.299 436.674C260.696 436.465 261.005 436.169 261.227 435.785C261.448 435.401 261.559 434.958 261.559 434.457C261.559 433.962 261.448 433.523 261.227 433.139C261.005 432.755 260.696 432.455 260.299 432.24C259.908 432.025 259.469 431.918 258.98 431.918ZM276.441 429.633C276.441 430.583 276.575 431.524 276.842 432.455C277.109 433.38 277.506 434.226 278.033 434.994C278.561 435.762 279.202 436.378 279.957 436.84L278.922 438.266C278.128 437.79 277.447 437.143 276.881 436.322C276.314 435.495 275.878 434.558 275.572 433.51C275.24 434.649 274.771 435.668 274.166 436.566C273.567 437.458 272.854 438.155 272.027 438.656L270.875 437.27C271.676 436.788 272.359 436.15 272.926 435.355C273.492 434.555 273.919 433.669 274.205 432.699C274.498 431.723 274.645 430.727 274.645 429.711V426.449H276.441V429.633ZM286.168 442.348H284.391V424.848H286.168V442.348ZM282.535 441.488H280.777V432.543H278.062V431H280.777V425.18H282.535V441.488ZM304.41 440.16H288.395V438.617H292.223V434.047C291.493 433.643 290.927 433.132 290.523 432.514C290.12 431.895 289.918 431.202 289.918 430.434C289.918 429.529 290.191 428.731 290.738 428.041C291.292 427.351 292.057 426.817 293.033 426.439C294.01 426.055 295.12 425.863 296.363 425.863C297.613 425.863 298.727 426.055 299.703 426.439C300.686 426.817 301.451 427.351 301.998 428.041C302.551 428.731 302.828 429.529 302.828 430.434C302.828 431.195 302.633 431.882 302.242 432.494C301.852 433.1 301.298 433.604 300.582 434.008V438.617H304.41V440.16ZM296.363 427.348C295.452 427.348 294.645 427.475 293.941 427.729C293.238 427.976 292.691 428.334 292.301 428.803C291.91 429.265 291.715 429.809 291.715 430.434C291.715 431.052 291.91 431.596 292.301 432.064C292.691 432.533 293.238 432.898 293.941 433.158C294.645 433.412 295.452 433.539 296.363 433.539C297.268 433.539 298.072 433.412 298.775 433.158C299.485 432.898 300.038 432.533 300.436 432.064C300.833 431.596 301.031 431.052 301.031 430.434C301.031 429.815 300.833 429.271 300.436 428.803C300.045 428.334 299.495 427.976 298.785 427.729C298.082 427.475 297.275 427.348 296.363 427.348ZM298.707 438.617V434.721C297.997 434.896 297.216 434.984 296.363 434.984C295.543 434.984 294.775 434.9 294.059 434.73V438.617H298.707Z" fill="#ABABAB"/>
</svg>
