<svg width="223" height="113" viewBox="0 0 223 113" fill="none" xmlns="http://www.w3.org/2000/svg">
<path d="M1 102.4H221.8" stroke="#6B6B6B" stroke-width="2" stroke-linecap="round"/>
<path d="M108.759 9.60059C138.655 9.60059 162.759 31.9718 162.759 59.4111C162.759 73.1044 156.772 83.1607 147.077 89.8301C137.342 96.5274 123.813 99.8408 108.759 99.8408C93.7043 99.8408 80.1756 96.5275 70.4404 89.8301C60.746 83.1607 54.7588 73.1044 54.7588 59.4111C54.7589 31.9718 78.8624 9.6006 108.759 9.60059Z" fill="#FDF0DF" stroke="#ABABAB" stroke-width="1.92"/>
<ellipse cx="90.999" cy="38.8802" rx="5.04" ry="6.72" fill="#525252"/>
<ellipse cx="126.04" cy="38.8802" rx="5.04" ry="6.72" fill="#525252"/>
<ellipse cx="108.52" cy="53.9994" rx="3.84" ry="2.64" fill="#FEE8B0"/>
<ellipse cx="108.52" cy="67.1975" rx="3.84" ry="4.8" fill="#525252"/>
<mask id="mask0_40000067_22897" style="mask-type:alpha" maskUnits="userSpaceOnUse" x="104" y="62" width="9" height="10">
<ellipse cx="108.52" cy="67.1965" rx="3.84" ry="4.8" fill="#525252"/>
</mask>
<g mask="url(#mask0_40000067_22897)">
<ellipse cx="108.52" cy="72.6828" rx="3.84" ry="4.8" fill="#FFBDE8"/>
</g>
<path d="M141.062 2.03613C142.632 1.14982 144.654 0.7501 147.181 1.06934C152.373 1.72551 155.549 4.13099 158.798 6.94824C162.042 9.7615 165.405 13.0439 170.82 14.96C174.086 16.1156 177.833 16.5696 181.635 16.7891C183.54 16.8991 185.478 16.9501 187.389 16.998C189.304 17.0461 191.191 17.0904 193.021 17.1846C196.692 17.3735 200.039 17.7614 202.776 18.7373C205.478 19.7007 207.524 21.2148 208.722 23.6406C210.69 28.3855 210.256 36.3862 204.944 42.3945C199.67 48.3602 189.393 52.5542 171.314 49.2236C152.783 45.8095 141.697 32.893 137.871 21.209C135.952 15.3477 135.897 9.91843 137.502 6.18848C138.298 4.3391 139.493 2.92248 141.062 2.03613Z" fill="#ABABAB" stroke="#ABABAB" stroke-width="1.92"/>
<path d="M72.6504 4.54688C75.3514 4.04768 78.208 4.32418 81.4062 5.84082C83.5615 6.86283 84.8974 8.16005 85.6445 9.61621C86.3941 11.0772 86.6002 12.7955 86.3203 14.7432C85.7544 18.6814 83.2301 23.3521 79.6885 28.0928C72.6386 37.5295 61.9338 46.7567 56.5059 50.1885C37.1093 60.5665 25.4888 60.4957 18.8184 56.6729C12.1387 52.8446 9.9777 44.9953 10.127 38.7646L10.1279 38.7529V38.7412C10.128 34.2857 11.4416 31.4245 13.5264 29.457C15.6523 27.4509 18.6899 26.2663 22.3438 25.416C26.0131 24.5621 30.093 24.0849 34.3379 23.3691C38.5325 22.6619 42.8156 21.7298 46.6592 19.9668C50.1419 18.3693 53.2793 16.2638 56.21 14.1367C59.1694 11.9888 61.8652 9.86106 64.5889 8.10352C67.2961 6.35658 69.9232 5.05096 72.6504 4.54688Z" fill="#ABABAB" stroke="#ABABAB" stroke-width="1.92"/>
<path d="M66.5752 81.5273C71.5835 78.981 83.8672 76.948 98.4424 81.0938C103.576 83.4443 108.849 88.0003 108.145 95.2188L108.141 95.2578L108.14 95.2969C108.102 97.681 107.268 101.345 104.659 104.49C102.076 107.605 97.6778 110.301 90.3311 110.673L90.2656 110.676L90.2012 110.688C84.2063 111.822 77.8418 111.156 75.7021 110.693L75.6016 110.672H75.499C69.9667 110.672 66.2877 108.909 63.792 106.785C61.2755 104.644 59.905 102.089 59.0811 100.409C56.7474 95.652 57.5295 91.533 59.4258 88.29C61.3499 84.9998 64.4263 82.62 66.5752 81.5273Z" fill="#FDF0DF" stroke="#ABABAB" stroke-width="1.92"/>
<path d="M119.376 82.0078C124.384 79.4615 136.668 77.4285 151.243 81.5742C156.377 83.9248 161.65 88.4808 160.945 95.6992L160.941 95.7383L160.94 95.7773C160.903 98.1615 160.069 101.826 157.46 104.971C154.876 108.085 150.479 110.781 143.132 111.153L143.066 111.156L143.002 111.169C137.007 112.302 130.643 111.636 128.503 111.174L128.402 111.152H128.3C122.768 111.152 119.088 109.389 116.593 107.266C114.076 105.124 112.706 102.569 111.882 100.89C109.548 96.1325 110.33 92.0135 112.227 88.7705C114.151 85.4803 117.227 83.1004 119.376 82.0078Z" fill="#FDF0DF" stroke="#ABABAB" stroke-width="1.92"/>
<path d="M128.199 26.8799C127.479 26.2873 125.511 25.356 123.399 26.372" stroke="#525252" stroke-width="1.44" stroke-linecap="round"/>
<path d="M88.3594 26.8799C89.0794 26.2873 91.0474 25.356 93.1594 26.372" stroke="#525252" stroke-width="1.44" stroke-linecap="round"/>
</svg>
